<?xml version="1.0" standalone="no"?>
<!DOCTYPE svg PUBLIC "-//W3C//DTD SVG 20010904//EN"
 "http://www.w3.org/TR/2001/REC-SVG-20010904/DTD/svg10.dtd">
<svg version="1.0" xmlns="http://www.w3.org/2000/svg"
 width="380.000000pt" height="352.000000pt" viewBox="0 0 380.000000 352.000000"
 preserveAspectRatio="xMidYMid meet">

<g transform="translate(0.000000,352.000000) scale(0.100000,-0.100000)"
fill="#000000" stroke="none">
<path d="M1327 3332 c-37 -92 -67 -175 -67 -184 0 -10 -5 -18 -12 -18 -17 0
-4 -10 20 -15 32 -6 65 -25 84 -49 l18 -21 0 25 1 25 11 -25 c6 -14 10 -28 10
-32 -1 -5 3 -8 9 -8 6 0 7 8 2 23 -4 12 -6 118 -5 235 2 116 2 212 0 212 -1 0
-33 -76 -71 -168z"/>
<path d="M920 3355 c0 -65 5 -133 12 -151 11 -30 13 -32 63 -30 48 1 52 3 45
21 -17 45 -113 270 -116 274 -2 2 -4 -49 -4 -114z m81 -148 c-10 -9 -11 -8 -5
6 3 10 9 15 12 12 3 -3 0 -11 -7 -18z"/>
<path d="M2531 3294 c-17 -14 -31 -33 -31 -41 0 -11 -5 -13 -17 -8 -10 5 -33
10 -50 13 -46 6 -50 -13 -21 -100 l24 -72 45 2 c24 1 49 -1 56 -5 17 -12 45
-161 41 -225 l-3 -55 -74 29 c-164 66 -400 106 -551 93 -345 -29 -616 -152
-850 -385 -193 -192 -318 -427 -371 -695 -22 -109 -19 -409 5 -510 63 -271
170 -470 354 -655 106 -107 114 -109 31 -10 -291 347 -380 833 -233 1276 34
104 121 271 186 359 122 164 321 326 509 414 281 132 617 156 923 66 81 -24
81 -24 67 -91 -27 -139 -123 -269 -253 -345 -37 -22 -70 -44 -73 -49 -4 -6
-11 -8 -16 -5 -5 4 -9 2 -9 -2 0 -5 -8 -9 -17 -10 -10 0 -47 -8 -83 -17 -36
-9 -82 -18 -102 -21 l-38 -6 0 -142 c0 -362 -99 -627 -314 -843 -117 -118
-262 -208 -435 -270 l-66 -24 55 6 c30 3 68 6 83 5 18 0 25 4 21 11 -5 7 1 9
17 5 14 -4 38 -2 54 2 23 7 25 10 10 11 -11 2 12 6 50 10 85 9 197 39 189 51
-3 5 2 6 10 3 24 -9 231 99 327 170 200 151 356 373 439 626 30 92 60 232 60
280 0 19 14 45 43 78 103 121 157 249 165 390 3 67 8 92 18 92 7 0 36 -14 64
-30 67 -40 55 -21 -20 30 -56 38 -59 43 -70 97 -15 71 -61 184 -99 246 -26 40
-28 47 -16 65 8 10 27 25 43 31 l29 12 -31 85 c-17 46 -34 84 -38 84 -3 0 -20
-12 -37 -26z m-280 -1011 c-11 -5 -11 -7 0 -14 10 -6 10 -9 2 -9 -7 0 -11 -6
-9 -12 1 -7 1 -11 -1 -8 -1 3 -33 4 -70 4 -65 -2 -66 -1 -31 10 20 6 40 14 44
19 12 12 24 8 24 -9 0 -8 5 -12 10 -9 6 4 8 10 5 15 -5 8 11 18 30 18 6 0 4
-2 -4 -5z m-91 -150 c-1 -27 -1 -27 -15 -9 -19 25 -19 36 0 36 10 0 15 -10 15
-27z m17 -75 c-3 -8 -6 -5 -6 6 -1 11 2 17 5 13 3 -3 4 -12 1 -19z m50 9 c14
17 14 17 9 0 -3 -10 -6 -24 -6 -31 0 -7 -6 -21 -14 -31 -13 -18 -14 -18 -10
10 4 25 3 27 -5 10 -8 -17 -10 -16 -10 11 -1 34 12 56 17 29 3 -15 5 -15 19 2z
m-705 -1026 c-3 -9 -7 -11 -9 -4 -3 7 -11 9 -19 6 -13 -5 -13 -7 -2 -14 9 -6
5 -9 -12 -9 l-25 1 22 18 c26 22 53 24 45 2z"/>
<path d="M1680 3154 c-158 -147 -201 -175 -234 -154 -19 12 -20 12 -7 -4 10
-11 22 -15 38 -11 13 3 23 1 23 -5 0 -5 -7 -10 -15 -10 -21 0 -19 -17 5 -30
10 -6 18 -16 16 -23 -1 -6 -1 -9 1 -4 8 12 25 8 20 -6 -3 -8 4 -12 22 -11 14
1 34 3 44 3 10 1 16 4 14 9 -3 4 8 7 24 8 16 1 31 3 33 5 7 8 166 362 164 365
-2 1 -68 -58 -148 -132z m-147 -198 c16 -12 16 -14 1 -20 -8 -3 -25 0 -36 8
-14 10 -16 15 -6 19 19 8 21 8 41 -7z"/>
<path d="M527 3186 c26 -53 51 -96 56 -96 5 0 6 8 3 18 -5 14 -4 14 9 -2 8
-11 15 -26 15 -34 0 -7 4 -11 10 -7 5 3 7 13 4 23 -5 14 -4 15 5 2 6 -8 11
-11 11 -6 0 5 8 2 18 -5 15 -13 16 -12 3 4 -8 9 -11 20 -8 24 7 7 -103 124
-146 155 -27 19 -26 16 20 -76z"/>
<path d="M587 3083 c-4 -3 -7 -11 -7 -17 0 -6 5 -5 12 2 6 6 9 14 7 17 -3 3
-9 2 -12 -2z"/>
<path d="M180 2917 c0 -9 145 -123 157 -122 6 0 22 11 34 24 l23 24 -25 -6
c-23 -6 -23 -6 -4 10 20 15 20 15 -2 8 -13 -3 -23 -2 -23 4 0 5 -30 19 -67 32
-38 12 -74 24 -80 27 -7 2 -13 2 -13 -1z"/>
<path d="M369 2798 c-5 -18 -6 -38 -1 -34 7 8 12 36 6 36 -2 0 -4 -1 -5 -2z"/>
<path d="M2002 2683 c-67 -33 -126 -148 -100 -196 7 -14 7 -17 -1 -13 -7 5 -9
1 -5 -8 3 -9 10 -16 15 -16 4 0 6 -7 3 -15 -9 -23 78 -103 121 -111 140 -26
254 68 243 201 -6 70 -42 126 -100 154 -53 25 -129 27 -176 4z"/>
<path d="M1542 2678 c-7 -7 -12 -17 -12 -24 0 -6 -16 -15 -35 -18 -19 -4 -35
-10 -35 -14 0 -5 14 -27 31 -51 23 -30 35 -39 42 -32 6 6 22 11 34 11 20 0 30
-13 58 -72 59 -125 63 -233 14 -335 -25 -52 -118 -140 -184 -173 -28 -14 -52
-26 -54 -27 -2 -2 9 -47 25 -100 25 -87 29 -114 29 -238 0 -162 -17 -234 -82
-344 -39 -64 -129 -165 -193 -214 -33 -26 -31 -25 43 8 267 118 442 329 493
592 15 78 18 226 6 303 -5 29 -3 54 5 70 20 41 43 141 43 185 0 103 -48 212
-133 302 -42 45 -47 54 -37 72 6 12 15 21 21 21 5 0 -4 20 -21 45 -33 48 -39
52 -58 33z"/>
<path d="M126 2479 c-49 -5 -91 -10 -93 -12 -3 -4 217 -67 232 -67 10 0 -2 60
-16 77 -6 7 -17 12 -23 12 -6 -1 -51 -6 -100 -10z"/>
<path d="M3273 2258 c-12 -71 -7 -118 12 -118 7 0 24 -9 38 -20 25 -20 53 -27
43 -11 -3 4 17 8 44 7 l49 -2 11 71 c6 38 14 78 16 88 4 14 -1 17 -32 17 -21
0 -45 -7 -55 -16 -17 -15 -20 -14 -41 10 -13 14 -35 28 -49 31 -25 6 -26 4
-36 -57z"/>
<path d="M1110 2214 c-7 -16 -13 -32 -12 -36 1 -5 -3 -8 -9 -8 -8 0 -8 -4 -1
-12 5 -7 13 -29 16 -48 4 -19 4 -30 -1 -23 -4 6 -8 -174 -8 -400 0 -227 2
-401 3 -387 2 14 8 30 13 36 23 29 51 255 56 464 3 118 9 222 14 230 7 12 8
12 9 1 0 -11 4 -10 19 3 14 13 21 14 27 5 4 -7 3 -10 -2 -6 -6 3 -16 -4 -24
-16 -12 -20 -12 -21 3 -8 10 7 17 10 17 5 0 -4 5 -3 12 4 9 9 15 7 26 -6 21
-25 -37 78 -64 115 -13 17 -24 36 -24 40 0 5 -13 24 -28 42 l-28 33 -14 -28z"/>
<path d="M1332 2206 c-33 -31 -37 -39 -37 -85 0 -41 5 -55 29 -80 51 -53 125
-53 177 -1 24 23 29 37 29 77 0 55 -17 86 -60 108 -50 26 -96 19 -138 -19z"/>
<path d="M198 2062 c-64 -36 -115 -68 -114 -69 2 -2 68 6 147 18 79 12 152 22
162 22 18 1 18 2 0 15 -10 7 -17 18 -15 23 1 5 -6 9 -15 9 -14 1 -12 4 6 14
23 13 23 13 -17 11 -35 -2 -40 0 -31 11 20 25 -4 14 -123 -54z m179 -18 c-3
-3 -12 -4 -19 -1 -8 3 -5 6 6 6 11 1 17 -2 13 -5z"/>
<path d="M2606 1996 c-22 -8 -49 -25 -60 -37 -12 -12 -15 -18 -7 -14 9 5 12 4
7 -3 -4 -7 -14 -12 -21 -12 -14 0 -35 -30 -35 -47 1 -4 6 2 13 14 13 23 13 23
29 3 10 -11 13 -22 8 -25 -6 -4 -8 -18 -5 -33 3 -15 2 -20 -1 -12 -4 8 -12 18
-18 23 -8 5 -7 10 3 16 8 5 9 11 3 15 -5 3 -12 0 -15 -7 -7 -18 4 -77 14 -77
16 0 10 -23 -13 -49 -13 -14 -15 -19 -5 -12 19 15 24 2 6 -16 -7 -7 -7 -13 0
-17 5 -4 15 3 22 15 9 17 8 23 -2 30 -10 6 -7 8 8 6 20 -1 21 -3 6 -30 -15
-30 -11 -63 7 -52 6 4 9 1 8 -6 -2 -7 18 -21 43 -32 81 -34 167 -8 225 68 40
52 45 142 12 200 -48 82 -149 121 -232 91z m159 -176 c5 -29 3 -44 -8 -55 -23
-23 -26 -19 -15 27 5 24 7 51 4 60 -2 10 0 16 4 13 5 -3 11 -23 15 -45z"/>
<path d="M542 1862 c-9 -11 -11 -12 -7 -2 3 8 0 7 -7 -3 -7 -11 -42 -55 -76
-100 -35 -45 -78 -101 -95 -126 l-30 -44 59 33 c122 70 239 143 242 151 2 5 7
7 12 4 4 -3 13 2 20 10 11 13 10 14 -5 9 -13 -5 -16 -4 -11 4 4 7 14 12 22 12
12 0 12 2 2 14 -11 12 -14 12 -19 -2 -4 -12 -10 -10 -30 11 -13 14 -31 27 -39
29 -8 2 -17 6 -20 10 -3 4 -11 -1 -18 -10z"/>
<path d="M3176 1715 c-9 -14 -13 -25 -8 -25 5 0 14 11 20 25 6 14 10 25 8 25
-2 0 -11 -11 -20 -25z"/>
<path d="M3122 1677 c-14 -15 -20 -31 -17 -46 2 -13 2 -21 -2 -17 -3 3 -12 1
-20 -5 -8 -7 -13 -8 -13 -1 0 5 7 13 16 16 8 3 12 11 8 17 -3 6 -9 7 -13 3
-10 -15 -124 -63 -171 -74 -25 -5 -78 -10 -117 -10 -46 0 -73 -4 -73 -11 0
-28 -155 -231 -256 -335 -116 -120 -288 -241 -299 -211 -7 15 31 87 46 87 14
0 11 28 -3 33 -10 4 -10 7 -1 14 7 5 15 23 17 40 2 25 0 30 -13 25 -14 -5 -14
-3 -2 11 7 9 17 15 21 12 10 -6 20 19 20 48 0 18 2 19 10 7 5 -8 10 -10 10 -4
0 7 8 11 18 10 11 -1 16 5 14 18 -2 12 1 16 9 10 8 -4 10 -3 5 4 -4 6 -2 21 5
33 8 15 8 19 0 15 -6 -4 -11 -3 -11 3 0 5 6 14 14 18 7 4 19 19 26 32 21 41
-7 13 -46 -46 -21 -32 -53 -74 -72 -95 -19 -21 -32 -38 -28 -38 8 0 -141 -138
-170 -157 -13 -8 -22 -18 -19 -22 2 -4 -1 -8 -8 -8 -7 0 -35 -14 -63 -31 -145
-90 -314 -140 -499 -149 -106 -5 -160 -1 -305 22 -32 5 -30 3 20 -22 80 -39
240 -91 351 -113 425 -87 836 34 1144 336 87 86 165 174 165 188 0 13 53 65
61 60 5 -3 23 3 41 13 33 17 39 19 59 22 5 0 7 5 4 11 -3 5 0 7 9 4 17 -7 42
31 26 39 -6 3 -5 4 2 3 7 -2 12 -9 10 -15 -1 -7 18 2 43 19 26 18 43 36 39 42
-4 6 -3 9 2 5 11 -6 26 6 76 58 29 31 35 43 27 55 -9 13 -10 12 -5 -2 3 -12
-5 -24 -25 -39 -32 -23 -49 -21 -25 3 8 8 11 20 7 27 -11 17 -34 -32 -27 -57
8 -25 -7 -36 -40 -28 -22 6 -23 8 -9 22 9 10 13 24 9 40 -3 13 -2 30 3 37 5 6
9 21 9 32 -1 11 8 28 18 38 11 9 17 19 14 22 -2 3 -14 -5 -26 -18z m-37 -177
c13 -6 15 -9 5 -9 -8 0 -22 4 -30 9 -18 12 -2 12 25 0z m-781 -165 c-4 -8 -11
-15 -16 -15 -6 0 -5 -6 2 -15 8 -9 8 -15 2 -15 -18 0 -20 24 -4 43 19 21 23
22 16 2z m-70 -83 c3 -5 -1 -9 -9 -9 -8 0 -12 4 -9 9 3 4 7 8 9 8 2 0 6 -4 9
-8z"/>
<path d="M3114 1589 c-3 -6 -1 -16 6 -22 10 -9 12 -8 7 5 -4 11 0 18 11 21 16
4 16 5 0 6 -9 0 -20 -4 -24 -10z"/>
<path d="M3121 1524 c0 -11 3 -14 6 -6 3 7 2 16 -1 19 -3 4 -6 -2 -5 -13z"/>
<path d="M2350 1379 c0 -5 5 -7 10 -4 6 3 10 8 10 11 0 2 -4 4 -10 4 -5 0 -10
-5 -10 -11z"/>
<path d="M1206 1185 c-14 -11 -16 -15 -5 -15 9 0 5 -8 -11 -20 -14 -10 -23
-21 -20 -23 3 -3 23 10 45 29 22 19 31 31 21 28 -13 -5 -17 -4 -12 4 9 15 5
15 -18 -3z"/>
<path d="M2241 1184 c0 -11 3 -14 6 -6 3 7 2 16 -1 19 -3 4 -6 -2 -5 -13z"/>
<path d="M1158 1159 c-10 -5 -18 -20 -19 -32 -1 -21 -2 -20 -9 3 -4 14 -8 21
-9 16 -1 -5 -8 -3 -16 4 -12 10 -15 9 -15 -5 0 -14 -3 -15 -15 -5 -12 10 -15
10 -15 -4 0 -9 -4 -16 -10 -16 -5 0 -9 -3 -8 -7 1 -9 -15 -52 -33 -85 -10 -18
-9 -20 7 -14 51 19 135 83 141 106 3 14 10 31 16 38 11 14 8 15 -15 1z"/>
<path d="M2765 1093 c-71 -37 -108 -99 -107 -179 1 -81 46 -146 124 -178 52
-22 95 -20 155 8 81 38 126 131 103 218 -25 92 -98 148 -192 148 -29 -1 -66
-8 -83 -17z"/>
<path d="M3577 1000 c-53 -69 -56 -74 -38 -86 10 -7 24 -27 31 -44 12 -30 11
-33 -31 -76 -160 -165 -355 -244 -529 -215 -135 22 -286 112 -392 231 l-51 58
-86 -57 c-165 -110 -296 -171 -456 -212 -75 -20 -115 -23 -245 -23 -138 0
-166 3 -255 27 -160 44 -340 140 -454 243 -28 25 -51 43 -51 40 0 -3 35 -49
79 -103 213 -266 462 -435 750 -510 133 -35 346 -43 492 -18 137 23 255 58
357 105 l83 39 81 -11 c60 -9 101 -8 169 1 225 29 398 150 515 359 50 88 63
96 116 68 28 -15 28 -14 83 52 54 67 55 67 34 85 -12 9 -36 17 -55 17 -27 0
-34 4 -34 20 0 11 -13 34 -28 51 l-28 32 -57 -73z"/>
<path d="M2193 1047 c4 -11 1 -17 -8 -17 -8 0 -15 -4 -15 -10 0 -14 19 -12 34
3 11 10 10 15 -2 27 -14 13 -15 12 -9 -3z"/>
<path d="M1138 953 c7 -3 16 -2 19 1 4 3 -2 6 -13 5 -11 0 -14 -3 -6 -6z"/>
</g>
</svg>
